<svg xmlns="http://www.w3.org/2000/svg" width="883" height="449.304" viewBox="0 0 883 449.304">
<defs>
  <style type="text/css">
    @font-face {
  font-family: "Coolvetica";
  src: local("Coolvetica"), url(coolvetica.ttf) format("truetype");
  /* other formats include: 'woff2', 'truetype, 'opentype',
                            'embedded-opentype', and 'svg' */
}
  </style>
</defs>
  <g id="Group_8" data-name="Group 8" transform="translate(-1148 -511.472)">
    <g id="Group_7" data-name="Group 7" transform="translate(727 428)">
      <text id="B" transform="translate(460 257)" fill="#2d3436" font-size="119" font-family="Odin-Bold, Odin Rounded" font-weight="700"><tspan x="0" y="0">B</tspan></text>
      <g id="Path_1" data-name="Path 1" transform="translate(421 112)" fill="none" stroke-linecap="round">
        <path d="M0,0H247.762L404.442-28.528v449.3L247.762,374H0Z" stroke="none"/>
        <path d="M 387.4415588378906 -8.153533935546875 L 250.8076934814453 16.72503662109375 L 249.2974853515625 17.00003051757813 L 247.7624053955078 17.00003051757813 L 16.99996948242188 17.00003051757813 L 16.99996948242188 357.0000305175781 L 247.7624053955078 357.0000305175781 L 250.2459106445313 357.0000305175781 L 252.6255493164063 357.71044921875 L 387.4415588378906 397.9589233398438 L 387.4415588378906 -8.153533935546875 M 404.4415588378906 -28.52841186523438 L 404.4415588378906 420.7756042480469 L 247.7624053955078 374.0000305175781 L -3.0517578125e-05 374.0000305175781 L -3.0517578125e-05 3.0517578125e-05 L 247.7624053955078 3.0517578125e-05 L 404.4415588378906 -28.52841186523438 Z" stroke="none" fill="#2d3436"/>
      </g>
      <circle id="Ellipse_1" data-name="Ellipse 1" cx="57.5" cy="57.5" r="57.5" transform="translate(488 248)" fill="#2d3436"/>
      <text id="s" transform="translate(598 426)" fill="#2d3436" font-size="119" font-family="Odin-Bold, Odin Rounded" font-weight="700"><tspan x="0" y="0">s</tspan></text>
      <text id="_" data-name="&apos;" transform="translate(589 426)" fill="#2d3436" font-size="119" font-family="Odin-Bold, Odin Rounded" font-weight="700"><tspan x="0" y="0">&apos;</tspan></text>
      <line id="Line_1" data-name="Line 1" x2="1" y2="136" transform="translate(673.5 145.5)" fill="none" stroke="#2d3436" stroke-linecap="round" stroke-width="8"/>
      <circle id="Ellipse_2" data-name="Ellipse 2" cx="15.5" cy="15.5" r="15.5" transform="translate(759 332)" fill="#2d3436"/>
      <line id="Line_2" data-name="Line 2" x1="1" y2="128" transform="translate(672.5 340.5)" fill="none" stroke="#2d3436" stroke-linecap="round" stroke-width="8"/>
    </g>
    <text id="Bo_s_Bedroom" data-name="Bo&apos;s
Bedroom" transform="translate(1600 708)" fill="#2d3436" font-size="119" font-family="Coolvetica" letter-spacing="-0.017em"><tspan x="0" y="0">Bo&apos;s</tspan><tspan x="0" y="143">Bedroom</tspan></text>
  </g>
</svg>
