<?xml-stylesheet type="text/css" href="../src/index.css" ?>
<svg xmlns="http://www.w3.org/2000/svg" width="883" height="449.304" viewBox="0 0 883 449.304">
<defs>
  <style type="text/css">
    @font-face {
  font-family: "Coolvetica";
  src: local("Coolvetica"), url(coolvetica.ttf) format("truetype");
  /* other formats include: 'woff2', 'truetype, 'opentype',
                            'embedded-opentype', and 'svg' */
}
  </style>
</defs>
<g transform="translate(-1013 -532.472)"><g transform="translate(592 449)"><text transform="translate(460 257)" fill="#fff" font-size="119" font-family="Odin-Bold, Odin Rounded" font-weight="700"><tspan x="0" y="0">B</tspan></text><g transform="translate(421 112)" fill="none" stroke-linecap="round"><path d="M0,0H247.762L404.442-28.528v449.3L247.762,374H0Z" stroke="none"/><path d="M 387.4415588378906 -8.153533935546875 L 250.8076934814453 16.72503662109375 L 249.2974853515625 17.00003051757813 L 247.7624053955078 17.00003051757813 L 16.99996948242188 17.00003051757813 L 16.99996948242188 357.0000305175781 L 247.7624053955078 357.0000305175781 L 250.2459106445313 357.0000305175781 L 252.6255493164063 357.71044921875 L 387.4415588378906 397.9589233398438 L 387.4415588378906 -8.153533935546875 M 404.4415588378906 -28.52841186523438 L 404.4415588378906 420.7756042480469 L 247.7624053955078 374.0000305175781 L -3.0517578125e-05 374.0000305175781 L -3.0517578125e-05 3.0517578125e-05 L 247.7624053955078 3.0517578125e-05 L 404.4415588378906 -28.52841186523438 Z" stroke="none" fill="#fff"/></g><circle cx="57.5" cy="57.5" r="57.5" transform="translate(488 248)" fill="#fff"/><text transform="translate(598 426)" fill="#fff" font-size="119" font-family="Odin-Bold, Odin Rounded" font-weight="700"><tspan x="0" y="0">s</tspan></text><text transform="translate(589 426)" fill="#fff" font-size="119" font-family="Odin-Bold, Odin Rounded" font-weight="700"><tspan x="0" y="0">&apos;</tspan></text><line x2="1" y2="136" transform="translate(673.5 145.5)" fill="none" stroke="#fff" stroke-linecap="round" stroke-width="8"/><circle cx="15.5" cy="15.5" r="15.5" transform="translate(759 332)" fill="#fff"/><line x1="1" y2="128" transform="translate(672.5 340.5)" fill="none" stroke="#fff" stroke-linecap="round" stroke-width="8"/></g><text transform="translate(1465 729)" fill="#fff" font-size="119" font-family="Coolvetica" letter-spacing="-0.017em"><tspan x="0" y="0">Bo&apos;s</tspan><tspan x="0" y="143">Bedroom</tspan></text></g></svg>